 <!DOCTYPE svg PUBLIC "-//W3C//DTD SVG 1.1//EN" "http://www.w3.org/Graphics/SVG/1.1/DTD/svg11.dtd">
<svg id="eca31f32-a8c6-4e93-9580-b55296f3b744" data-name="Layer 1" xmlns="http://www.w3.org/2000/svg" width="865.76" height="682.89" viewBox="0 0 865.76 682.89">
<defs>
<style xmlns="http://www.w3.org/1999/xhtml">*, ::after, ::before { box-sizing: border-box; }
img, svg { vertical-align: middle; }
</style>
<style xmlns="http://www.w3.org/1999/xhtml">*, body, html { -webkit-font-smoothing: antialiased; }
img, svg { max-width: 100%; }
</style>
</defs>
<path id="f30187e6-0b36-4376-8f84-fff073286c2d" data-name="SVGID" d="M203.66,139.27S-34.48,260.84,33.8,415.71c0,0,45,174.85,319.73,126.56l403-40s98.47-1.18,85.12-117.71c-4.58-40-28-75.15-62.22-96.33-18.79-11.63-37.24-28.6-39.44-51.09a25.26,25.26,0,0,0-.46-3C736.12,218.62,704.87,100,540.05,62.67,540.05,62.67,401.83,11.05,203.66,139.27Z" fill="#f200aa" data-primary="true"/>
<g opacity="0.7" style="isolation:isolate">
<path id="b41f10ee-79e7-46d9-9c7e-d29ec61c0122" data-name="SVGID" d="M203.66,139.27S-34.48,260.84,33.8,415.71c0,0,45,174.85,319.73,126.56l403-40s98.47-1.18,85.12-117.71c-4.58-40-28-75.15-62.22-96.33-18.79-11.63-37.24-28.6-39.44-51.09a25.26,25.26,0,0,0-.46-3C736.12,218.62,704.87,100,540.05,62.67,540.05,62.67,401.83,11.05,203.66,139.27Z" fill="#fff"/>
</g>
<ellipse cx="418.71" cy="647.29" rx="325.69" ry="29.46" fill="#f200aa" opacity="0.35" data-primary="true"/>
<polygon points="411.07 576.52 410.43 574.48 591.39 517.81 658.99 377.14 660.91 378.06 592.91 519.58 592.47 519.71 411.07 576.52" fill="#f200aa" data-primary="true"/>
<rect x="566.35" y="67.57" width="2.14" height="204.13" transform="translate(90.63 520.93) rotate(-53.03)" fill="#f200aa" data-primary="true"/>
<rect x="216.84" y="165.81" width="215.57" height="2.14" transform="translate(-36.73 218.4) rotate(-35.32)" fill="#f200aa" data-primary="true"/>
<rect x="265.61" y="313.67" width="2.14" height="255.66" transform="translate(-179.78 183.2) rotate(-28.82)" fill="#f200aa" data-primary="true"/>
<polygon points="427.72 73.08 455.72 89.57 482.18 72.7 454.57 54.67 427.72 73.08" fill="#d1d3d4"/>
<polygon points="455.21 120.11 455.72 89.57 482.18 72.7 482.21 100.95 455.21 120.11" fill="#bcbec0"/>
<polygon points="427.72 73.08 428.08 103.18 455.21 120.11 455.72 89.57 427.72 73.08" fill="#a7a9ac"/>
<polygon points="345.26 552.71 373.26 569.2 399.72 552.32 372.11 534.3 345.26 552.71" fill="#d1d3d4"/>
<polygon points="372.75 599.74 373.26 569.2 399.72 552.32 399.75 580.57 372.75 599.74" fill="#bcbec0"/>
<polygon points="345.26 552.71 345.62 582.8 372.75 599.74 373.26 569.2 345.26 552.71" fill="#a7a9ac"/>
<path d="M182.1,433.5,164.63,145.75a14.58,14.58,0,0,1,13.66-15.43l197.87-12.07a14.57,14.57,0,0,1,15.43,13.61L410.16,418a14.8,14.8,0,0,1-13.76,15.73L197.89,447.37A14.8,14.8,0,0,1,182.1,433.5Z" fill="#f200aa" data-primary="true"/>
<path d="M182.1,433.5,164.63,145.75a14.58,14.58,0,0,1,13.66-15.43l197.87-12.07a14.57,14.57,0,0,1,15.43,13.61L410.16,418a14.8,14.8,0,0,1-13.76,15.73L197.89,447.37A14.8,14.8,0,0,1,182.1,433.5Z" opacity="0.2"/>
<path d="M191.19,429.07,174.76,148a14.06,14.06,0,0,1,12.85-15.08l186-11.79a13.9,13.9,0,0,1,14.51,13.29L405.57,414c.5,7.95-5.28,14.82-12.93,15.36L206,442.62A14.11,14.11,0,0,1,191.19,429.07Z" fill="#fff"/>
<rect x="367.91" y="285.44" width="22.24" height="22.02" transform="translate(-15.49 20.95) rotate(-3.1)" fill="#710e4f" data-secondary="true"/>
<rect x="366.53" y="262.07" width="22.24" height="22.02" transform="translate(-14.22 20.84) rotate(-3.1)" fill="#710e4f" data-secondary="true"/>
<rect x="369.17" y="309.12" width="22.24" height="22.02" transform="translate(-16.77 21.05) rotate(-3.1)" fill="#710e4f" data-secondary="true"/>
<rect x="364.73" y="238.85" width="22.24" height="22.02" transform="translate(-12.97 20.71) rotate(-3.1)" fill="#710e4f" data-secondary="true"/>
<rect x="169.93" y="187.79" width="5.06" height="30.25" rx="2.37" transform="translate(-11.55 10.41) rotate(-3.35)" opacity="0.2"/>
<rect x="171.94" y="219.52" width="5.06" height="34.12" rx="2.37" transform="translate(-13.51 10.59) rotate(-3.35)" opacity="0.2"/>
<rect x="180.15" y="152.38" width="198.16" height="1.07" transform="translate(-8.75 17.19) rotate(-3.47)" fill="#710e4f" data-secondary="true"/>
<polygon points="190.24 153.35 183.75 148.56 189.62 141.57 190.44 142.26 185.3 148.37 190.87 152.49 190.24 153.35" fill="#710e4f" data-secondary="true"/>
<path d="M345.51,139.57h-4.06V138.5h4.06a1.7,1.7,0,1,0,0-3.39H339.1v-1.06h6.41a2.76,2.76,0,1,1,0,5.52Z" fill="#710e4f" data-secondary="true"/>
<polygon points="339.88 132.22 340.14 136.68 334.53 134.94 339.88 132.22" fill="#710e4f" data-secondary="true"/>
<path d="M360.89,138.75h-4.06a2.76,2.76,0,1,1,0-5.52h6.41v1.07h-6.41a1.7,1.7,0,1,0,0,3.39h4.06Z" fill="#710e4f" data-secondary="true"/>
<polygon points="362.46 131.41 362.2 135.86 367.81 134.12 362.46 131.41" fill="#710e4f" data-secondary="true"/>
<line x1="382.14" y1="244.76" x2="371.18" y2="256.45" fill="none" stroke="#fff" stroke-miterlimit="10"/>
<line x1="384.38" y1="290.56" x2="373.41" y2="302.24" fill="none" stroke="#fff" stroke-miterlimit="10"/>
<polygon points="385.19 326.23 380.27 324.09 375.72 326.93 376.24 321.59 372.13 318.14 377.37 316.98 379.38 312.01 382.1 316.63 387.45 317.01 383.89 321.02 385.19 326.23" fill="#fff"/>
<rect x="361.76" y="192.14" width="22.24" height="22.02" transform="translate(-10.45 20.48) rotate(-3.1)" fill="#710e4f" data-secondary="true"/>
<rect x="363.21" y="215.64" width="22.24" height="22.02" transform="translate(-11.72 20.59) rotate(-3.1)" fill="#710e4f" data-secondary="true"/>
<rect x="370.26" y="332.63" width="22.24" height="22.02" transform="translate(-18.04 21.14) rotate(-3.1)" fill="#710e4f" data-secondary="true"/>
<path d="M382.43,349.39h-2.71l-.06,0a2.27,2.27,0,0,1-1-.32,4,4,0,0,1-1.52-1.66c-.53-1-1-2.07-1.54-3.1a1.8,1.8,0,0,1-.08-.21.87.87,0,0,1,1-1.11,1.5,1.5,0,0,1,.71.48,5.17,5.17,0,0,1,.84,1.41l.06.11a.58.58,0,0,0,0-.19l-.9-5.4a.8.8,0,0,1,.27-.82.83.83,0,0,1,1.32.51c.21,1.14.41,2.28.61,3.42.06.31.12.62.17.93a0,0,0,0,0,0,0c0-.74,0-1.48.05-2.23,0-1,0-2,.07-3a.8.8,0,0,1,.51-.74.85.85,0,0,1,.89.11.89.89,0,0,1,.35.78v5a3.75,3.75,0,0,0,.09-.57l.33-3a2.57,2.57,0,0,1,.14-.68.85.85,0,0,1,1.63.47c-.19,1.23-.38,2.45-.56,3.67,0,.14,0,.28-.06.42a.2.2,0,0,0,.05-.09l.81-2.46a1.42,1.42,0,0,1,.4-.62.81.81,0,0,1,1.32.43,1.3,1.3,0,0,1,0,.52c-.15.69-.3,1.38-.47,2.06a4.47,4.47,0,0,0-.15,1.31c0,.54,0,1.08,0,1.61a3,3,0,0,1-.05.6,2.74,2.74,0,0,1-1.77,2.2A5.38,5.38,0,0,1,382.43,349.39Z" fill="#fff"/>
<rect x="253.89" y="427.4" width="103.86" height="1.07" transform="translate(-25.35 19.3) rotate(-3.47)" fill="#710e4f" data-secondary="true"/>
<polygon points="279.68 396.46 280.45 410.67 294.75 409.81 293.72 395.61 279.68 396.46" fill="#f200aa" data-primary="true"/>
<polygon points="293.7 395.57 307.94 394.73 308.76 408.95 294.69 409.83 293.7 395.57" fill="#710e4f" data-secondary="true"/>
<polygon points="322.41 393.92 322.93 408.19 308.75 408.98 307.87 394.76 322.41 393.92" fill="#d1d3d4"/>
<polygon points="337.48 407.26 322.9 408.19 322.42 393.9 336.68 392.93 337.48 407.26" fill="#a7a9ac"/>
<path d="M454.07,390.75l-.28,17.14S424.5,490.48,426.94,508c0,0,6.11,73.64,15.87,116.76h31.33l-2-67.13,21.16-134.25-11-25.63S461.26,395.18,454.07,390.75Z" fill="#710e4f" data-secondary="true"/>
<path d="M474.14,624.73l-16.91.11s2.13-38.39-7.41-76a99.63,99.63,0,0,1-2.91-33.33c1.38-15.49,6.19-35.9,20.29-53.47l4.9,95.6Z" opacity="0.2"/>
<path d="M454.07,390.75c.33.19.69.37,1.08.55,3.09,1.5,12.68,5.57,27.41,6.55,14.07.94,32.81-.92,55.05-10.5l-3.35-12.47-80.09,6.45Z" fill="#f200aa" data-primary="true"/>
<path d="M505.06,625.14l28.88-.41-26-71.6a136.12,136.12,0,0,0-15.47-36.46c16.4-21.65,44.86-74.87,44.86-74.87,17.64-25.06.32-54.45.32-54.45-27.87,11.64-52.15,10.57-55.05,10.39l-.29,0,.13,9.8.23,17.49a14,14,0,0,1-2,7.33c-15.7,26.28-28,75.22-28,75.22C446.07,537.26,505.06,625.14,505.06,625.14Z" fill="#710e4f" data-secondary="true"/>
<path d="M505.06,625.14l28.88-.41-26-71.6a136.12,136.12,0,0,0-15.47-36.46c16.4-21.65,44.86-74.87,44.86-74.87,17.64-25.06.32-54.45.32-54.45-26.41,11.35-52,10.64-55.05,10.39l-.29,0v9.76l.13,0c9.29,3.55,20.74,1.84,26.11.7a23.13,23.13,0,0,0,4.87-1.66l.33-.15a9.28,9.28,0,0,1,12.81,10.17c-7.33,41.39-53.61,96.27-53.61,96.27C533.13,586.89,505.06,625.14,505.06,625.14Z" opacity="0.2"/>
<path d="M452.71,410.87s19.8,4.34,23.46,29.56l6.51-11.38-.12-31.2c-14.73-1-24.32-5.05-27.41-6.55-.39-.18-.75-.36-1.08-.55l-.28,17.14Z" opacity="0.2"/>
<path d="M434.43,333.88s-22.12,26.77-34.29,19.76a8.7,8.7,0,0,1-4-5.6,249.49,249.49,0,0,1-4.82-76.11s-4.31-.54-6.74-13.73l-11-9.43s-1.89-3.5,1.34-4.58c0,0-1.34-4.85,4.05-3.77,0,0-1.62-5.12,5.65-2.7,0,0,11,.81,15.35,11.05a20.4,20.4,0,0,0,3.13,5.09,10.36,10.36,0,0,1,2.77,6.44,37.77,37.77,0,0,1-.24,6.78L414,319.34l4-4.85Z" fill="#f9b499"/>
<polygon points="413.96 333.07 413.96 319.34 418 314.49 422.04 319.61 413.96 333.07" fill="#f7a48b"/>
<path d="M460.23,262.12s-13.65,0-25.42,19.75L417.76,312a2.28,2.28,0,0,0,.24,2.6L436.19,336a2.57,2.57,0,0,0,4-.07l10.58-13.46Z" fill="#f200aa" data-primary="true"/>
<path d="M460.23,262.12s-13.65,0-25.42,19.75L417.76,312a2.28,2.28,0,0,0,.24,2.6L436.19,336a2.57,2.57,0,0,0,4-.07l10.58-13.46Z" opacity="0.2"/>
<path d="M440.43,324.44a40.83,40.83,0,0,0,11.08,13.23l2.66,43.65s51.63,22.41,80.1-6.44l4.93-36.83-22-71.36s-5.93-4.88-22.92-8.93l-34,4.36S425.81,295.72,440.43,324.44Z" fill="#f200aa" data-primary="true"/>
<path d="M440.43,324.44a40.83,40.83,0,0,0,11.08,13.23l2.66,43.65s51.63,22.41,80.1-6.44l4.93-36.83-22-71.36s-5.93-4.88-22.92-8.93A30.8,30.8,0,0,1,485,267.93s18,11,13.91,39.37a21,21,0,0,1-8.76,14.43c-5.31,3.61-13.57,5.69-25.33-.38,0,0-10.26,11.77-24.31,3Z" fill="#fff" opacity="0.2"/>
<path d="M441.14,227.68c0,14,8,25.69,18.85,28.77l.24.07v0a21.42,21.42,0,0,0,17-2.78l1.09-.75a28.38,28.38,0,0,0,9.27-12.16,34.48,34.48,0,0,0,2.54-13.13c0-16.34-11-29.58-24.52-29.58S441.14,211.34,441.14,227.68Z" fill="#f9b499"/>
<path d="M432.57,261.13a.29.29,0,0,0,.2.33l11.27,4,4.06,1.44.15.05,0,0a26.21,26.21,0,0,1,11.94-4.84V256.5s-7.55-1.44-13.2-9.9c-2.85-4.27-5.22-10.34-5.89-18.93,0,0,.25-9.37,2.89-13.24h0c.45.12,11.62,3,23.32-10.78,0,0,5.69,23.59,19.79,23.32a49.53,49.53,0,0,0,.05,5.81c.38,6.06,1.84,15.91,7.07,25l15.06,4.67s8.48-8.46,13.81-16.63a1.84,1.84,0,0,0-1-2.79c-3.38-.89-9-3.81-8.89-13.5a36.78,36.78,0,0,0-.89-8.63c-1.7-7.14-5.77-19.19-14.65-25v-3.37s11.6-1.49,13.1-5.24l-5.34-8.14a3.56,3.56,0,0,0-4.64-1.2l-3.5,1.86,2.17-6.84a2.14,2.14,0,0,0-.69-2.33l-1.14-.94a2.17,2.17,0,0,0-3.19.51c-2.24,3.48-6.51,10.83-6.51,16.34,0,0-22.83-14.23-40.43,8.23,0,0-9.73,5.62-11.23,32.57C436.27,227.3,433.71,253.32,432.57,261.13Z" fill="#710e4f" data-secondary="true"/>
<path d="M460.23,256.5v5.62c.3,9.94,7.94,11.24,7.94,11.24,14.1,2.71,26.1-15.6,26.1-15.6a49.55,49.55,0,0,1-6-17.22c-2.93,6-6.4,9.93-9.87,12.43l-1.09.75a21.64,21.64,0,0,1-16.19,3l-.24-.05Z" fill="#f9b499"/>
<path d="M460,256.45l.24,5.67c25.1,5.2,28-21.58,28-21.58l-.6.27A28.38,28.38,0,0,1,478.37,253l-1.09.75a21.64,21.64,0,0,1-16.19,3l-.24-.05-.62-.17v0Z" fill="#f7a48b"/>
<path d="M552.42,331.43s13.17,52.71-9.65,52.39c0,0-48.21-1-78.43-12.54,0,0-15.42,9.65-34.71-5.46,0,0-6.11,1.61-8.36-4.5h19.29s-7.39-4.82,4.82-4.18c0,0,3.86,1,5.79-1.93,0,0,5.46-5.14,16.07,3.22l60.1-1.29,1.29-9.32,15.43-23.46Z" fill="#f9b499"/>
<path d="M453.74,360.68a39.6,39.6,0,0,1-6.57.82,38.49,38.49,0,0,1-6.61-.18,43.71,43.71,0,0,1,13.18-.64Z" fill="#f7a48b"/>
<path d="M527.34,357.14s13.18,1.93,17.68,6.75c0,0-5.14-9-11.57-11.25l20.63-13.31s-.89-5-1.66-7.9l-21.61,16.5s-1.59,1.05-2.18-.11Z" fill="#f7a48b"/>
<path d="M533.94,624.73s-.82,17.61,1.54,27.82c0,0,3.54,13-3.93,14.15H476.93s-8.65-8.25,12.57-17.29l36.55-24.36Z" fill="#f200aa" data-primary="true"/>
<path d="M505.06,625.14s-.62,16-15.56,24.27a15.92,15.92,0,0,0,3.25,2.9,19.26,19.26,0,0,0,23.88-1.79c5.66-5.16,12.62-14.16,9.42-25.47Z" fill="#f9b499"/>
<path d="M471.46,624.73s-.82,17.61,1.54,27.82c0,0,3.53,13-3.93,14.15H414.44s-8.64-8.25,12.58-17.29l36.55-24.36Z" fill="#f200aa" data-primary="true"/>
<path d="M442.57,625.14s-.62,16-15.55,24.27a15.92,15.92,0,0,0,3.25,2.9,19.24,19.24,0,0,0,23.87-1.79c5.66-5.16,12.62-14.16,9.43-25.47Z" fill="#f9b499"/>
<ellipse cx="439.51" cy="359.11" rx="7.36" ry="1.61" transform="translate(-22.97 30.11) rotate(-3.82)" fill="#f200aa" data-primary="true"/>
<path d="M441.27,357.43,446.5,352s11-.52,18.82,2.35L446,358A12.64,12.64,0,0,0,441.27,357.43Z" fill="#710e4f" data-secondary="true"/>
<path d="M441.27,357.43,446.5,352s11-.52,18.82,2.35L446,358A12.64,12.64,0,0,0,441.27,357.43Z" opacity="0.2"/>
<path d="M441.27,357.43,446.5,352a114.2,114.2,0,0,0-25.24,2.78l13.95,3.3A29,29,0,0,1,441.27,357.43Z" fill="#f200aa" data-primary="true"/>
<path d="M435.21,358.05l-13.95-3.3s-10,2.29-10.3,5.85l21.23-.88S431.7,358.73,435.21,358.05Z" fill="#d1d3d4"/>
<path d="M446,358l19.34-3.64s8.29,2.53-1.43,6.79l-18.06-1.61S448.06,358.34,446,358Z" fill="#a7a9ac"/>
<path d="M440.19,360.68l3.3,4.6s13.15-1.06,20.4-4.17l-18.06-1.61A17,17,0,0,1,440.19,360.68Z" fill="#710e4f" data-secondary="true"/>
<path d="M440.19,360.68l3.3,4.6s13.15-1.06,20.4-4.17l-18.06-1.61A17,17,0,0,1,440.19,360.68Z" fill="#fff" opacity="0.2"/>
<path d="M432.19,359.72,411,360.6s-.69,3,10.5,4.57l13-4.57S432.43,360.38,432.19,359.72Z" fill="#710e4f" data-secondary="true"/>
<path d="M440.19,360.68l3.3,4.6a109.45,109.45,0,0,1-22-.11l13-4.57A23.34,23.34,0,0,0,440.19,360.68Z" fill="#f200aa" data-primary="true"/>
<path d="M440.19,360.68l3.3,4.6a109.45,109.45,0,0,1-22-.11l13-4.57A23.34,23.34,0,0,0,440.19,360.68Z" fill="#fff" opacity="0.5"/>
<path d="M444,214.43h0c.45.12,11.62,3,23.32-10.78,0,0,5.69,23.59,19.79,23.32a49.53,49.53,0,0,0,.05,5.81l3.82-.14.18-7.91s-14.45.25-22.75-25.86C468.45,198.88,460.1,214.33,444,214.43Z" opacity="0.2"/>
<ellipse cx="491.86" cy="232.36" rx="9.55" ry="7.3" transform="translate(108.38 618.19) rotate(-70.46)" fill="#f9b499"/>
<path d="M444,265.49l4.06,1.44.19,0a26.21,26.21,0,0,1,11.94-4.84l-.24-5.67s-7.31-1.39-13-9.85C447.17,250,447.28,260.46,444,265.49Z" opacity="0.2"/>
<path d="M561.63,323.68c-5.57,4.7-22.28,18.64-30.82,24.25a4.13,4.13,0,0,1-6-1.69c-7.06-15.13-30.61-68.86-13.68-77.65,0,0,13.29-9.87,32.27,21.63l18.81,29.83A2.78,2.78,0,0,1,561.63,323.68Z" fill="#f200aa" data-primary="true"/>
<path d="M561.63,323.68c-5.57,4.7-22.28,18.64-30.82,24.25a4.13,4.13,0,0,1-6-1.69c-7.06-15.13-30.61-68.86-13.68-77.65,0,0,13.29-9.87,32.27,21.63l18.81,29.83A2.78,2.78,0,0,1,561.63,323.68Z" opacity="0.2"/>
<path d="M357.91,239l8.82-.55L415,251.91a3.12,3.12,0,0,1,2.18,3.83h0a3.13,3.13,0,0,1-3.89,2.18l-48.2-14Z" fill="#f200aa" data-primary="true"/>
<path d="M370.16,239.43l-.18,1a1.11,1.11,0,0,0,.81,1.27l5.87,1.54.18-2.16Z" fill="#fff" opacity="0.2"/>
<path d="M383.56,244.1l.14-1.06-6.86-2-.18,2.16,5.46,1.78A1.1,1.1,0,0,0,383.56,244.1Z" fill="#fff" opacity="0.2"/>
<path d="M395.11,265.47s-1.36-6.35,1.43-9.72a1.82,1.82,0,0,0-.12-2.44,16.11,16.11,0,0,1-4.55-9.93s-.45-.91,1.14-1.14a4,4,0,0,1,3.61,1.45,27.18,27.18,0,0,1,3.33,5.08s1.43,3.82,3.13,5.08a12.33,12.33,0,0,1,2.92,8.43" fill="#f9b499"/>
<polygon points="369.5 210.54 368.27 196.04 379.68 204.99 372.59 204.99 369.5 210.54" fill="none" stroke="#fff" stroke-miterlimit="10"/>
<polygon points="371.97 234.59 370.74 220.09 382.14 229.04 375.05 229.04 371.97 234.59" fill="#fff"/>
<line x1="372.73" y1="291.71" x2="384.64" y2="302.25" fill="none" stroke="#fff" stroke-miterlimit="10"/>
<polygon points="381.4 266.06 373.21 266.06 369.11 273.16 373.21 280.25 381.4 280.25 385.5 273.16 381.4 266.06" fill="#fff"/>
<path d="M251.33,303.88s-52.18-21.77-52.33-33S227.06,267,227.06,267s-31.47-15.13-28.54-25.9,20.72,1.24,20.72,1.24-22-27.86-9.88-33.9,28.12,41,28.12,41-2.84-21.17,14.9-18.72c17.56,2.42,2.28,41.28,2.28,41.28s5.21-14.78,14.19-13S251.33,303.88,251.33,303.88Z" fill="#d1d3d4"/>
<path d="M268.85,259.06c-7.9-1.58-12.86,9.62-14,12.39,1.82-4.92,13.78-38.43-2.52-40.67-17.75-2.45-14.9,18.72-14.9,18.72s-16.09-47-28.12-41l-.37.2c25.34,38.95,42.34,95.2,42.34,95.2S277.78,260.85,268.85,259.06Z" fill="#a7a9ac"/>
<path d="M346.1,356.34s-13-20.44-10.45-24.49,10.61,5.32,10.61,5.32-7.37-12.88-3.86-16,6.89,5.34,6.89,5.34-1.15-15.06,4.43-14.39.27,21.26.27,21.26,3.92-8.26,9.58-3.17-8.81,15.42-8.81,15.42,5.29-4.09,8-1.27S346.1,356.34,346.1,356.34Z" fill="#a7a9ac"/>
<path d="M362.77,344.34c-2.41-2.47-6.78.37-7.81,1.12,1.8-1.33,13.83-10.56,8.61-15.27-5.67-5.09-9.58,3.17-9.58,3.17s5.29-20.59-.27-21.27h-.18c-.22,19.86-7.44,44.26-7.44,44.26S365.52,347.16,362.77,344.34Z" fill="#d1d3d4"/>
<path d="M263.38,374.49s-36.61.77-39.46-5.92,15.85-9.74,15.85-9.74-22.56-.69-23.43-7.93S229,346.1,229,346.1s-20-10.87-14.27-17.77,27,17.14,27,17.14-6.92-12,4.38-15.33,11.51,24.31,11.51,24.31-.48-10.31,5.4-11.65S263.38,374.49,263.38,374.49Z" fill="#d1d3d4"/>
<path d="M263,342.8c-5.16,1.17-5.41,9.27-5.41,11.22-.09-3.45-1.06-27-11.49-23.88-11.3,3.32-4.38,15.33-4.38,15.33s-21.25-24-27-17.14a1.84,1.84,0,0,0-.17.22c24.79,16.66,48.78,45.94,48.78,45.94S268.88,341.46,263,342.8Z" fill="#a7a9ac"/>
<path d="M275.2,339.29c1.61-2.9,1.44-5.31.16-7.42-2.72,2.12-6.13,4.67-9.27,6.76-.71.47-1.4.92-2.07,1.33-7.06,4.35-26,6-30.23-8.79s5.59-18.5,6.67-25.59a18.86,18.86,0,0,0-.82-7.18c-5.45-10.51-7.46-21.85-6.17-27.16,2.25-9.33,10-15.47,18.51-15.44,7.09,0,22,3,25.09,3s11.05-1.21,11.05-1.21,14.52,1.5,23.34-4.07,23-8,28.36.38,3.67,13.41-.15,23.62,4.08,12,6.55,22.58c1.8,7.69-4.54,13.22-8.11,15.65a21,21,0,0,1-2.26,1.38l-10-1.84-2.62,13.36s7.86,4.08,19.61,14.08c7.57,6.45,14.42,15,18.28,20.21,2.1,2.81,3.33,4.67,3.33,4.67L256,377.87s1.51-3.16,3.73-7.77C264,361.13,271.09,346.69,275.2,339.29Z" fill="#f200aa" data-primary="true"/>
<path d="M361.17,363a49.5,49.5,0,0,1-14.69,2c-9-.46-3.38-9.34-2-14.17s-12.17,5.8-16.09,3.27,5.19-12.51,2.59-17.26-11,.93-15.63-2.89,4-8.22,5.08-10.94-12.41-4.7-11.37-13.6,8.59,2.5,9.91-.23-9.2-7.74-9.15-14.36,7.43-2.9,7.43-2.9,5.73,13.26,16.38,21.36a20.09,20.09,0,0,0,4.45,2.49,20.06,20.06,0,0,1-2.26,1.38l-10-1.84-2.62,13.36s7.86,4.08,19.61,14.08C350.45,349.22,357.3,357.77,361.17,363Z" opacity="0.2"/>
<path d="M290.78,341c-3.86,3.78-14.06-1.2-11.51,5.5s9.46,11.78,3.24,14-10.38-4.59-11.89-.19,4.22,8.13,1.3,11.06c-1.76,1.78-7.47,0-12.24-1.29,4.33-9,11.4-23.41,15.52-30.81,1.61-2.9,1.44-5.31.16-7.42-2.72,2.12-6.13,4.67-9.27,6.76,1.76-4.84,2.36-11.22-.71-18.95,0,0-5.32-21.39-2-24.44s4.65,13.82,7.22,13.37-.29-11.46,7.39-9.62-3,12.49-.65,16.56,13-10,16.15-2-10.81,15.19-8.31,17.64S294.63,337.26,290.78,341Z" opacity="0.2"/>
<path d="M285.14,375.12c4.61-12.54,17.07-48,14-55.32-3.71-9-21.44-40.45-21.44-40.45l24.7-4.83s-.17,23.32,5.61,43.79c4.58,16.26,20.63,42.3,26.91,52.12Z" fill="#710e4f" data-secondary="true"/>
<path d="M334.14,303.81a14.31,14.31,0,0,0,4.79-.25c1.7-.58,2.6-.19,4.88-.25s4.65-1.94,5.06-.72.06,2.49-2.14,3.68-1.66,1.15-6.11,1.26S331.35,304.7,334.14,303.81Z" fill="#f9b499"/>
<path d="M310.21,320s7.22,1,9.44.3,9.42-2.85,9.42-2.85l2.88,1.61,5.23,6.4s4.74,3.28,6.7,2.6-1.16-2.26-3.3-4.19-4.73-6.69-4.73-6.69,6.89,5.21,7.71,6.19a23.31,23.31,0,0,0,4.54,4.34c1.83,1.15,3.66.56,3.09-.45s-2.14-4.07-2.69-4.81-9.05-7.65-9.05-7.65l5.13,1.69s5.8,6.41,9.7,5.31c1.83-.51-6.11-7.7-7.4-8.36a68.18,68.18,0,0,1-5.52-4l7.32,1.25a28.35,28.35,0,0,1,3.34,3.48c.83,1.24,3.48,1.47,2.61-.29s-4.21-7-5.24-7.42-1.76-.13-6.8-.78-15.94-4.84-18.1-3.1-12.82,9.14-12.82,9.14-9.78,2.87-31.6,4.56c-22.09,1.71-25.06.62-30.81,5.07s-6.14,17.71,11,17.35C277.21,338.34,310.21,320,310.21,320Z" fill="#f9b499"/>
<path d="M295.81,193.12s-27.76-14.91-31.64-10.47,1.28,6.94.22,10.49S248.94,216.19,244,225.07s7.5,19.37,29.07,24.38c21.31,5,42.85-1.71,45.8-7.26,8.31-15.63-14.83-26.32-14.53-33S301.45,196.86,295.81,193.12Z" fill="#710e4f" data-secondary="true"/>
<path d="M289.18,224.53s-1.83,18.22,1.15,27.65c1.75,5.49,6.37,9.37,10,13.49a15.34,15.34,0,0,1,3.09,14.65c-1.61,4.78-5.68,7.36-10.51,7.53-10.22.37-25.19-7.52-20.41-20.17,3.51-9.3,5.05-20.61,4.73-25.15S287,219.84,289.18,224.53Z" fill="#f9b499"/>
<path d="M297.69,232.33a60.84,60.84,0,0,0-7.4,4.66c-2,1.71-5.27,2.16-6.12,4.88s0,8-.76,11.24,2.58-.15,3-2,.43-4.82,1.12-6.19,4.4-3.45,4.4-3.45a26.81,26.81,0,0,0-1.68,5.42,79.83,79.83,0,0,1-2.42,9.73c-.46.82,1.89,1.2,2.81-.43a68.44,68.44,0,0,0,3-8.7c.21-.8,3.62-7.12,3.62-7.12a58.88,58.88,0,0,0-1.42,9.12c0,3.19-1.81,7.28.17,6.1a7.12,7.12,0,0,0,3.27-4.71c.17-1.33,1.42-9.11,1.42-9.11l2.64-2.53a54.81,54.81,0,0,1-1,7.22c-.78,3.49-2,4.62-.94,4.83s3.41-2.59,3.79-4.47-.24-5.3,1.35-6.44a15,15,0,0,0,5.52-8.78c.71-3.72,1.81-3.27,1.81-3.27s.91,16.88.78,29.57-2.54,36.9.12,42.25,14.28,8.41,18.47-.31.79-17.91-4.81-37-10.22-41.88-12.85-43.07S308.33,219.3,297.69,232.33Z" fill="#f7a48b"/>
<path d="M294.05,219.14c1,14.26-5.39,26.26-14.33,27.07l-.36,0c-9.19.53-17.52-10.85-18.55-25.43s5.63-26.76,14.85-27.15S293,204.68,294.05,219.14Z" fill="#f9b499"/>
<path d="M279.7,246.2l-.35,0c-9.2.53-17.52-10.85-18.56-25.43s5.64-26.75,14.86-27.15a20.92,20.92,0,0,0-5.79,11c-1.33,7-.11,24.39-.11,24.39l6.8.19S278,239.31,279.7,246.2Z" fill="#f7a48b"/>
<path d="M296.76,214.53s1.66-22.87,5.78-24.17,4.89,10.42,4.89,10.42,1.63-13.84,5.93-13.9,2.15,8.1,2.15,8.1,7.37-11.51,11.11-7.54-11.4,15.43-11.4,15.43,7.41-3.5,8.79,3.69-15,5.61-15,5.61,6.15.35,6.62,4.11S296.76,214.53,296.76,214.53Z" fill="#f200aa" data-primary="true"/>
<path d="M315.67,216.28c-.42-3.31-5.21-4-6.37-4.09,2.06.16,16,1,14.73-5.65-1.39-7.19-8.8-3.69-8.8-3.69s15.13-11.49,11.4-15.43l-.12-.12c-11,14.12-29.74,27.23-29.74,27.23S316.16,220,315.67,216.28Z" opacity="0.2"/>
<polygon points="205.32 93.49 260.87 16.19 338.63 70.81 283.55 146.26 205.32 93.49" fill="#710e4f" data-secondary="true"/>
<polygon points="213.86 91.92 262.29 24.52 330.09 72.14 282.07 137.93 213.86 91.92" fill="#f200aa" data-primary="true"/>
<path d="M266.08,96.17l-6.89.6L246.14,80.3l1.51,17.46-6.89.6-2.45-28.31,6.9-.6,13,16.55-1.52-17.55,6.9-.59Z" fill="#710e4f" data-secondary="true"/>
<path d="M287.88,65.77l.47,5.53-11.53,1,.52,6,8.63-.75.46,5.37-8.63.74,1,11.46-6.9.59-2.44-28.31Z" fill="#710e4f" data-secondary="true"/>
<path d="M312.68,63.63l.48,5.53-7.5.64,2,22.79-6.9.59-2-22.78-7.5.64-.48-5.52Z" fill="#710e4f" data-secondary="true"/>
<polygon points="637.6 297.34 670 317.84 701.16 297.34 670 230.09 637.6 297.34" fill="#f200aa" data-primary="true"/>
<polygon points="637.6 303.49 670 323.18 701.16 302.26 669.18 361.72 637.6 303.49" fill="#f200aa" data-primary="true"/>
<g opacity="0.2">
<polygon points="637.6 297.34 670 317.84 701.16 297.34 670 230.09 637.6 297.34" fill="#fff"/>
<polygon points="637.6 303.49 670 323.18 701.16 302.26 669.18 361.72 637.6 303.49" fill="#fff"/>
</g>
</svg>